<?xml version="1.0" encoding="utf-8"?>
<!-- Generator: Adobe Illustrator 17.0.0, SVG Export Plug-In . SVG Version: 6.00 Build 0)  -->
<!DOCTYPE svg PUBLIC "-//W3C//DTD SVG 1.1//EN" "http://www.w3.org/Graphics/SVG/1.1/DTD/svg11.dtd">
<svg version="1.1" xmlns="http://www.w3.org/2000/svg" xmlns:xlink="http://www.w3.org/1999/xlink" x="0px" y="0px"
	 width="326.25px" height="326.25px" viewBox="0 0 326.25 326.25" enable-background="new 0 0 326.25 326.25" xml:space="preserve">
<g id="background" display="none">
	<polyline display="inline" fill="#FFFFFF" points="0,-13 326.25,-13 326.25,368 0,368 	"/>
</g>
<g id="cheer">
	<g id="body">
		<path id="black" d="M322.5,200c0,0.75,0,1.5,0,2.25c-7.999,0-16.001,0-24,0c-1.25,0-2.5,0-3.75,0c0-0.75,0-1.5,0-2.25
			c-1.25,0-2.5,0-3.75,0c0-1,0-2,0-3c-2.25,0-4.5,0-6.75,0c0-0.75,0-1.5,0-2.25c-1.25,0-2.5,0-3.75,0c0,0.75,0,1.5,0,2.25
			c-1.25,0-2.5,0-3.75,0c0,1,0,2,0,3c-1.25,0-2.5,0-3.75,0c0,0.75,0,1.5,0,2.25c1.25,0,2.5,0,3.75,0c0,1,0,2,0,3
			c-1.25,0-2.5,0-3.75,0c0,1,0,2,0,3c-2.5,0-5,0-7.5,0c0,0.75,0,1.5,0,2.25c-2.25,0-4.5,0-6.75,0c0,1,0,2,0,3c-1,0-2,0-3,0
			c0,0.75,0,1.5,0,2.25c-1.25,0-2.5,0-3.75,0c0,1,0,2,0,3c-2.25,0-4.5,0-6.75,0c0,0.75,0,1.5,0,2.25c-1.25,0-2.5,0-3.75,0
			c0,1,0,2,0,3c-1.25,0-2.5,0-3.75,0c0,1,0,2,0,3c-1.25,0-2.5,0-3.75,0c0,0.75,0,1.5,0,2.25c-1,0-2,0-3,0c0,1,0,2,0,3
			c-1.25,0-2.5,0-3.75,0c0,1.5,0,3,0,4.5c-1.25,0-2.5,0-3.75,0c0,0.75,0,1.5,0,2.25c-1.25,0-2.5,0-3.75,0c0,1,0,2,0,3
			c-1.25,0-2.5,0-3.75,0c0-2.75,0-5.5,0-8.25c1.25,0,2.5,0,3.75,0c0-2.25,0-4.5,0-6.75c1.25,0,2.5,0,3.75,0c0-1,0-2,0-3
			c1.25,0,2.5,0,3.75,0c0-1.75,0-3.5,0-5.25c1.25,0,2.5,0,3.75,0c0-1,0-2,0-3c2.25,0,4.5,0,6.75,0c0-1.75,0-3.5,0-5.25
			c1.25,0,2.5,0,3.75,0c0-1.75,0-3.5,0-5.25c2.5,0,5,0,7.5,0c0-1.75,0-3.5,0-5.25c1,0,2,0,3,0c0-2.75,0-5.5,0-8.25
			c1.25,0,2.5,0,3.75,0c0-1.75,0-3.5,0-5.25c1,0,2,0,3,0c0-1.75,0-3.5,0-5.25c1.25,0,2.5,0,3.75,0c0-1.5,0-3,0-4.5c1,0,2,0,3,0
			c0-1,0-2,0-3c1.25,0,2.5,0,3.75,0c0-2.5,0-5,0-7.5c1.25,0,2.5,0,3.75,0c0-2,0-4,0-6c1.25,0,2.5,0,3.75,0c0-0.75,0-1.5,0-2.25
			c1.25,0,2.5,0,3.75,0c0-3.75,0-7.5,0-11.25c1.25,0,2.5,0,3.75,0c0-1.75,0-3.5,0-5.25c1,0,2,0,3,0c0-1.75,0-3.5,0-5.25
			c1.25,0,2.5,0,3.75,0c0-0.75,0-1.5,0-2.25c1.25,0,2.5,0,3.75,0c0-31.747,0-63.503,0-95.25c1.25,0,2.5,0,3.75,0c0-2.5,0-5,0-7.5
			c1.25,0,2.5,0,3.75,0c0-8.749,0-17.501,0-26.25c-2.5,0-5,0-7.5,0c0-1,0-2,0-3c-2.5,0-5,0-7.5,0c0,1,0,2,0,3c-2.25,0-4.5,0-6.75,0
			c0,1,0,2,0,3c-1.25,0-2.5,0-3.75,0c0,0.75,0,1.5,0,2.25c-24.747,0-49.503,0-74.25,0c0,1,0,2,0,3c-2.25,0-4.5,0-6.75,0
			c0,0.5,0,1,0,1.5c-2.5,0-5,0-7.5,0c0,1,0,2,0,3c-2.25,0-4.5,0-6.75,0c0,0.75,0,1.5,0,2.25c-5.749,0-11.501,0-17.25,0c0,1,0,2,0,3
			c-3.75,0-7.5,0-11.25,0c0,0.75,0,1.5,0,2.25c-5.999,0-12.001,0-18,0c0,1,0,2,0,3c-2.25,0-4.5,0-6.75,0c0,1,0,2,0,3
			c-2.5,0-5,0-7.5,0c0,0.75,0,1.5,0,2.25c-2,0-4,0-6,0c0,1,0,2,0,3c-1.25,0-2.5,0-3.75,0c0,0.75,0,1.5,0,2.25c-4.75,0-9.5,0-14.25,0
			c0,1,0,2,0,3c-1.25,0-2.5,0-3.75,0c0,0.75,0,1.5,0,2.25c-3.75,0-7.5,0-11.25,0c0,1,0,2,0,3c-1,0-2,0-3,0c0,1,0,2,0,3
			c-1.25,0-2.5,0-3.75,0c0,0.75,0,1.5,0,2.25c-1,0-2,0-3,0c0,1,0,2,0,3c-1.25,0-2.5,0-3.75,0c0,0.75,0,1.5,0,2.25c-1,0-2,0-3,0
			c0,4.25,0,8.5,0,12.75c-1.25,0-2.5,0-3.75,0c0,3.5,0,7,0,10.5c-1.25,0-2.5,0-3.75,0c0,1.75,0,3.5,0,5.25c-1.25,0-2.5,0-3.75,0
			c0,2,0,4,0,6c-1.25,0-2.5,0-3.75,0c0,0.75,0,1.5,0,2.25c-1.25,0-2.5,0-3.75,0c0,1.75,0,3.5,0,5.25c-1,0-2,0-3,0c0,1,0,2,0,3
			c-1.25,0-2.5,0-3.75,0c0,0.75,0,1.5,0,2.25c-1.25,0-2.5,0-3.75,0c0,1,0,2,0,3c-1.25,0-2.5,0-3.75,0c0,1.75,0,3.5,0,5.25
			c-1.25,0-2.5,0-3.75,0c0,1,0,2,0,3c-0.75,0-1.5,0-2.25,0c0,12.999,0,26.001,0,39c0.75,0,1.5,0,2.25,0c0,2.75,0,5.5,0,8.25
			c1.25,0,2.5,0,3.75,0c0,2.75,0,5.5,0,8.25c1.25,0,2.5,0,3.75,0c0,1.75,0,3.5,0,5.25c1.25,0,2.5,0,3.75,0c0,2.25,0,4.5,0,6.75
			c1.25,0,2.5,0,3.75,0c0,1,0,2,0,3c1,0,2,0,3,0c0,1.75,0,3.5,0,5.25c1.25,0,2.5,0,3.75,0c0,1.75,0,3.5,0,5.25c1.25,0,2.5,0,3.75,0
			c0,2.75,0,5.5,0,8.25c1.25,0,2.5,0,3.75,0c0,1.75,0,3.5,0,5.25c1.25,0,2.5,0,3.75,0c0,1.75,0,3.5,0,5.25c1.25,0,2.5,0,3.75,0
			c0,1,0,2,0,3c1,0,2,0,3,0c0,4.5,0,9,0,13.5c1.25,0,2.5,0,3.75,0c0,0.5,0,1,0,1.5c1,0,2,0,3,0c0,1,0,2,0,3c1.25,0,2.5,0,3.75,0
			c0,0.75,0,1.5,0,2.25c1,0,2,0,3,0c0,1.75,0,3.5,0,5.25c1.25,0,2.5,0,3.75,0c0,1,0,2,0,3c1.25,0,2.5,0,3.75,0c0,1.75,0,3.5,0,5.25
			c1.25,0,2.5,0,3.75,0c0,1,0,2,0,3c1.25,0,2.5,0,3.75,0c0,0.75,0,1.5,0,2.25c1,0,2,0,3,0c0,1,0,2,0,3c1.25,0,2.5,0,3.75,0
			c0,0.75,0,1.5,0,2.25c1.25,0,2.5,0,3.75,0c0,1,0,2,0,3c2.5,0,5,0,7.5,0c0,1,0,2,0,3c2,0,4,0,6,0c0,0.75,0,1.5,0,2.25
			c1.25,0,2.5,0,3.75,0c0,1,0,2,0,3c3.5,0,7,0,10.5,0c0,0.75,0,1.5,0,2.25c3.75,0,7.5,0,11.25,0c0,1,0,2,0,3c4.75,0,9.5,0,14.25,0
			c0,0.75,0,1.5,0,2.25c9.249,0,18.501,0,27.75,0c0,2.5,0,5,0,7.5c-1.25,0-2.5,0-3.75,0c0,1.75,0,3.5,0,5.25c-1,0-2,0-3,0
			c0,5.5,0,11,0,16.5c-1.25,0-2.5,0-3.75,0c0,18.998,0,38.002,0,57c19.998,0,40.002,0,60,0c4.75,0,9.5,0,14.25,0
			c22.248,0,44.502,0,66.75,0c2.5,0,5,0,7.5,0c0-2.5,0-5,0-7.5c0-5.25,0-10.5,0-15.75c0-24.498,0-49.002,0-73.5
			c0-5.25,0-10.5,0-15.75c0-4.5,0-9,0-13.5c0-5.999,0-12.001,0-18c0-7.999,0-16.001,0-24C325,200,323.75,200,322.5,200z"/>
		<path id="yellow" fill-rule="evenodd" clip-rule="evenodd" fill="#FFCB0F" d="M265.5,316.25c3.75,0,7.5,0,11.25,0
			c0,0.75,0,1.5,0,2.25c2.5,0,5,0,7.5,0c0,1.75,0,3.5,0,5.25c1,0,2,0,3,0c0,1,0,2,0,3c-1,0-2,0-3,0c0,1,0,2,0,3
			c-1.25,0-2.5,0-3.75,0c0,1.75,0,3.5,0,5.25c-1.25,0-2.5,0-3.75,0c0,0.75,0,1.5,0,2.25c-6.999,0-14.001,0-21,0c0-0.75,0-1.5,0-2.25
			c-2.25,0-4.5,0-6.75,0c0-1,0-2,0-3c-3.75,0-7.5,0-11.25,0c0-0.75,0-1.5,0-2.25c-1.25,0-2.5,0-3.75,0c0-1,0-2,0-3
			c1.25,0,2.5,0,3.75,0c0-1,0-2,0-3c1.25,0,2.5,0,3.75,0c0-0.75,0-1.5,0-2.25c5.749,0,11.501,0,17.25,0c0-1,0-2,0-3
			c2.25,0,4.5,0,6.75,0C265.5,317.75,265.5,317,265.5,316.25z"/>
		<g id="gray">
			<g>
				<path fill-rule="evenodd" clip-rule="evenodd" fill="#292A29" d="M249,344.75h-3.75v-4.5h-3.75V332h-3.75v-2.25H234v-3h3.75
					v-5.25H234v-8.25h-3V297.5h-11.25v2.25H216v16.5h3.75v5.25h3.75v8.25h3.75v12H231V347h3v3h3.75v18H252v-21h-3V344.75z
					 M322.5,360.5v-5.25h-3.75V353h-3v-3H312v-3h-3.75v-2.25h-3.75v-7.5h-2.25v-10.5h-3.75v-5.25h-3.75v-3H291v-5.25h-3.75V308h-3
					v-5.25h-3.75v-3h-3.75v3H273V308h3.75v3h7.5v7.5h3v5.25H291v6h3.75V335h3.75v5.25h3.75V347h2.25v6h3.75v2.25H312v5.25h3.75v5.25
					h3V368h7.5v-7.5H322.5z"/>
			</g>
		</g>
		<g id="green">
			<g>
				<path fill-rule="evenodd" clip-rule="evenodd" fill="#121E14" d="M322.5,224v-3h-3.75v-5.25h-3v-2.25H312v-3h-3.75v-2.25h-6v-3
					h-3.75v-3h-3.75V200H291v-3h-6.75v-2.25h-3.75V197h-3.75v3H273v2.25h3.75v3h7.5v3h3v2.25H291v3h3.75v2.25h3.75v3h3.75V221h2.25
					v3h3.75v3H312v5.25h3.75v1.5h3V239h3.75v3h3.75v-18H322.5z M322.5,257.75h-3.75v3h-3V266H312v3h-3.75v2.25h-3.75v3h-2.25v7.5
					H291v-7.5h-3.75v-3h-3V263h-3.75v-2.25h-3.75v-3H273v-2.25h-3.75v-3h-6.75v-2.25H252v-3h-3v-3h-7.5V242H234v-3h-14.25v3H216
					v2.25h-3v3h3v3h18v2.25h3.75v3h3.75v2.25h7.5v3h13.5V263h3v3h3.75v8.25H273v2.25h3.75v8.25h3.75v18h3.75V308h3v5.25H291v5.25
					h3.75v3h3.75v5.25h3.75v10.5h2.25v7.5h3.75V347H312v3h3.75v3h3v2.25h3.75v5.25h3.75v-15.75h-3.75v-3h-3.75V335h-3v-11.25H312
					v-7.5h-3.75v-3h-3.75V311h-2.25v-6h-3.75v-5.25h-3.75v-7.5h13.5v-6H312v-1.5h3.75v-8.25h3v-2.25h3.75v-3h3.75V255.5h-3.75
					V257.75z"/>
			</g>
		</g>
	</g>
	<g id="head">
		<g id="flesh">
			<path fill="#EEE6AF" d="M273,80.75c0-0.75,0-1.5,0-2.25c-1.25,0-2.5,0-3.75,0c0-3.25,0-6.5,0-9.75c-10.499,0-21.001,0-31.5,0
				c0,0.5,0,1,0,1.5c-2.25,0-4.5,0-6.75,0c0,1,0,2,0,3c-2.5,0-5,0-7.5,0c0,0.75,0,1.5,0,2.25c-10.499,0-21.001,0-31.5,0
				c0-0.75,0-1.5,0-2.25c-1.25,0-2.5,0-3.75,0c0-1,0-2,0-3c-1.25,0-2.5,0-3.75,0c0-1.5,0-3,0-4.5c-1,0-2,0-3,0c0-1.75,0-3.5,0-5.25
				c-18.998,0-38.002,0-57,0c0,0.75,0,1.5,0,2.25c-11.749,0-23.501,0-35.25,0c0,2,0,4,0,6c1.25,0,2.5,0,3.75,0c0,0.5,0,1,0,1.5
				c1.25,0,2.5,0,3.75,0c0-0.5,0-1,0-1.5c3.5,0,7,0,10.5,0c0,0.5,0,1,0,1.5c2.5,0,5,0,7.5,0c0,1.75,0,3.5,0,5.25c1,0,2,0,3,0
				c0,1,0,2,0,3c1,0,2,0,3,0c0,0.75,0,1.5,0,2.25c2.5,0,5,0,7.5,0c0,1,0,2,0,3c1,0,2,0,3,0c0,6.249,0,12.501,0,18.75
				c1.25,0,2.5,0,3.75,0c0,0.75,0,1.5,0,2.25c22.498,0,45.002,0,67.5,0c0-0.75,0-1.5,0-2.25c2.5,0,5,0,7.5,0c0-1,0-2,0-3
				c1,0,2,0,3,0c0-0.75,0-1.5,0-2.25c21.248,0,42.502,0,63.75,0c0,0.75,0,1.5,0,2.25c1.25,0,2.5,0,3.75,0c0-6.249,0-12.501,0-18.75
				C278,80.75,275.5,80.75,273,80.75z"/>
			<path fill="#EEE6AF" d="M223.5,110.75c2.5,0,5,0,7.5,0c0,0.75,0,1.5,0,2.25c1,0,2,0,3,0c0,1.75,0,3.5,0,5.25c1.25,0,2.5,0,3.75,0
				c0,2.5,0,5,0,7.5c1.25,0,2.5,0,3.75,0c0,1.75,0,3.5,0,5.25c1.25,0,2.5,0,3.75,0c0,2.75,0,5.5,0,8.25c1.25,0,2.5,0,3.75,0
				c0,6.999,0,14.001,0,21c-1.25,0-2.5,0-3.75,0c0,1,0,2,0,3c-1.25,0-2.5,0-3.75,0c0,1,0,2,0,3c-1.25,0-2.5,0-3.75,0
				c0,0.75,0,1.5,0,2.25c-1.25,0-2.5,0-3.75,0c0,1,0,2,0,3c-6.999,0-14.001,0-21,0c0-1,0-2,0-3c-3.5,0-7,0-10.5,0
				c0-0.75,0-1.5,0-2.25c-1,0-2,0-3,0c0-1,0-2,0-3c-2.5,0-5,0-7.5,0c0-1,0-2,0-3c-2.5,0-5,0-7.5,0c0-0.75,0-1.5,0-2.25c-1,0-2,0-3,0
				c0-1,0-2,0-3c-1.25,0-2.5,0-3.75,0c0-0.75,0-1.5,0-2.25c-1.25,0-2.5,0-3.75,0c0-2.75,0-5.5,0-8.25c-1.25,0-2.5,0-3.75,0
				c0-6.249,0-12.501,0-18.75c1.25,0,2.5,0,3.75,0c0-2.5,0-5,0-7.5c1.25,0,2.5,0,3.75,0c0-0.75,0-1.5,0-2.25
				c-12.999,0-26.001,0-39,0c0,3.25,0,6.5,0,9.75c-2.5,0-5,0-7.5,0c0,0.75,0,1.5,0,2.25c-9.249,0-18.501,0-27.75,0
				c0-0.75,0-1.5,0-2.25c-1.25,0-2.5,0-3.75,0c0-1,0-2,0-3c-1,0-2,0-3,0c0-1.5,0-3,0-4.5c-1.25,0-2.5,0-3.75,0c0-0.75,0-1.5,0-2.25
				c-2.5,0-5,0-7.5,0c0-1,0-2,0-3c-1.25,0-2.5,0-3.75,0c0-1.75,0-3.5,0-5.25c-1,0-2,0-3,0c0-1,0-2,0-3c-1.25,0-2.5,0-3.75,0
				c0-1.75,0-3.5,0-5.25c-1,0-2,0-3,0c0-0.75,0-1.5,0-2.25c-1.25,0-2.5,0-3.75,0c0-1,0-2,0-3c-1,0-2,0-3,0c0,1,0,2,0,3
				c-1.25,0-2.5,0-3.75,0c0,1.75,0,3.5,0,5.25c-1.25,0-2.5,0-3.75,0c0,0.75,0,1.5,0,2.25c-1.25,0-2.5,0-3.75,0c0,1,0,2,0,3
				c-1.25,0-2.5,0-3.75,0c0,1,0,2,0,3c-1.25,0-2.5,0-3.75,0c0,1.75,0,3.5,0,5.25c-1,0-2,0-3,0c0,0.75,0,1.5,0,2.25c1,0,2,0,3,0
				c0,1,0,2,0,3c3.75,0,7.5,0,11.25,0c0,0.5,0,1,0,1.5c3.5,0,7,0,10.5,0c0,1,0,2,0,3c2.25,0,4.5,0,6.75,0c0,0.75,0,1.5,0,2.25
				c3.5,0,7,0,10.5,0c0,1,0,2,0,3c2.5,0,5,0,7.5,0c0,1,0,2,0,3c1.25,0,2.5,0,3.75,0c0,0.75,0,1.5,0,2.25c2.25,0,4.5,0,6.75,0
				c0,1,0,2,0,3c1.25,0,2.5,0,3.75,0c0,0.75,0,1.5,0,2.25c1.25,0,2.5,0,3.75,0c0,1,0,2,0,3c10.499,0,21.001,0,31.5,0
				c0,0.75,0,1.5,0,2.25c2.25,0,4.5,0,6.75,0c0,1,0,2,0,3c1.25,0,2.5,0,3.75,0c0,1.75,0,3.5,0,5.25c1.25,0,2.5,0,3.75,0c0,1,0,2,0,3
				c2.5,0,5,0,7.5,0c0,0.75,0,1.5,0,2.25c2,0,4,0,6,0c0,1,0,2,0,3c2.5,0,5,0,7.5,0c0,1,0,2,0,3c2.25,0,4.5,0,6.75,0
				c0,0.75,0,1.5,0,2.25c1.25,0,2.5,0,3.75,0c0,1,0,2,0,3c1.25,0,2.5,0,3.75,0c0,0.75,0,1.5,0,2.25c1.25,0,2.5,0,3.75,0c0,1,0,2,0,3
				c1.25,0,2.5,0,3.75,0c0,0.5,0,1,0,1.5c1,0,2,0,3,0c0,1.75,0,3.5,0,5.25c1.25,0,2.5,0,3.75,0c0,1.75,0,3.5,0,5.25
				c1.25,0,2.5,0,3.75,0c0,1,0,2,0,3c1,0,2,0,3,0c0,1,0,2,0,3c3.5,0,7,0,10.5,0c0,0.75,0,1.5,0,2.25c2.5,0,5,0,7.5,0c0,1,0,2,0,3
				c1,0,2,0,3,0c0-1,0-2,0-3c1.25,0,2.5,0,3.75,0c0-2.75,0-5.5,0-8.25c1.25,0,2.5,0,3.75,0c0-1.75,0-3.5,0-5.25c1.25,0,2.5,0,3.75,0
				c0-1.75,0-3.5,0-5.25c1.25,0,2.5,0,3.75,0c0-1.5,0-3,0-4.5c1,0,2,0,3,0c0-0.75,0-1.5,0-2.25c1.25,0,2.5,0,3.75,0
				c0-2.75,0-5.5,0-8.25c1,0,2,0,3,0c0-1.75,0-3.5,0-5.25c1.25,0,2.5,0,3.75,0c0-1,0-2,0-3c1,0,2,0,3,0c0-3.5,0-7,0-10.5
				c1.25,0,2.5,0,3.75,0c0-1.75,0-3.5,0-5.25c1.25,0,2.5,0,3.75,0c0-2.75,0-5.5,0-8.25c1.25,0,2.5,0,3.75,0c0-1,0-2,0-3
				c1.25,0,2.5,0,3.75,0c0-6.749,0-13.501,0-20.25c-18.998,0-38.002,0-57,0C223.5,108.75,223.5,109.75,223.5,110.75z"/>
		</g>
		<g id="eye">
			<path fill="#FFFFFF" d="M231,141.5c0-1.75,0-3.5,0-5.25c-1.25,0-2.5,0-3.75,0c0-2.75,0-5.5,0-8.25c-1.25,0-2.5,0-3.75,0
				c0-2.25,0-4.5,0-6.75c-1.25,0-2.5,0-3.75,0c0-1,0-2,0-3c-1.25,0-2.5,0-3.75,0c0,1,0,2,0,3c-3.25,0-6.5,0-9.75,0c0,0.5,0,1,0,1.5
				c1.25,0,2.5,0,3.75,0c0,1,0,2,0,3c1,0,2,0,3,0c0,3.5,0,7,0,10.5c-1,0-2,0-3,0c0,1,0,2,0,3c-1.25,0-2.5,0-3.75,0
				c0,0.75,0,1.5,0,2.25c-2.25,0-4.5,0-6.75,0c0-0.75,0-1.5,0-2.25c-1.25,0-2.5,0-3.75,0c0-1.75,0-3.5,0-5.25c-1.25,0-2.5,0-3.75,0
				c0-1,0-2,0-3c-2.5,0-5,0-7.5,0c0,3.5,0,7,0,10.5c1.25,0,2.5,0,3.75,0c0,1.75,0,3.5,0,5.25c1.25,0,2.5,0,3.75,0c0,1,0,2,0,3
				c1.25,0,2.5,0,3.75,0c0,1,0,2,0,3c2.25,0,4.5,0,6.75,0c0,0.75,0,1.5,0,2.25c1.25,0,2.5,0,3.75,0c0,1,0,2,0,3c3.25,0,6.5,0,9.75,0
				c0,0.75,0,1.5,0,2.25c3.75,0,7.5,0,11.25,0c0-0.75,0-1.5,0-2.25c2.25,0,4.5,0,6.75,0c0-5.5,0-11,0-16.5
				C233,141.5,232,141.5,231,141.5z"/>
			<path fill="#FFFFFF" d="M202.5,122.75c-1,0-2,0-3,0c0,1,0,2,0,3c1,0,2,0,3,0C202.5,124.75,202.5,123.75,202.5,122.75z"/>
			<path fill="#FFFFFF" d="M195.75,125.75c-1.25,0-2.5,0-3.75,0c0,0.75,0,1.5,0,2.25c1.25,0,2.5,0,3.75,0
				C195.75,127.25,195.75,126.5,195.75,125.75z"/>
		</g>
		<g id="hair">
			<path id="cranial" fill-rule="evenodd" clip-rule="evenodd" fill="#342014" d="M280.5,17.75c0,0.75,0,1.5,0,2.25
				c-24.748,0-49.503,0-74.25,0c0,1,0,2,0,3c-2.25,0-4.5,0-6.75,0c0,0.75,0,1.5,0,2.25c-2.5,0-5,0-7.5,0c0,1,0,2,0,3
				c-2.5,0-5,0-7.5,0c0,1,0,2,0,3c-5.999,0-12.001,0-18,0c0,0.75,0,1.5,0,2.25c-3.25,0-6.5,0-9.75,0c0,1,0,2,0,3
				c-4.749,0-9.501,0-14.25,0c0,0.75,0,1.5,0,2.25c-1.25,0-2.5,0-3.75,0c0,2.75,0,5.5,0,8.25c-2.5,0-5,0-7.5,0c0,1,0,2,0,3
				c16.748,0,33.502,0,50.25,0c0,0.75,0,1.5,0,2.25c2.25,0,4.5,0,6.75,0c0,1,0,2,0,3c1.25,0,2.5,0,3.75,0c0,0.75,0,1.5,0,2.25
				c1.25,0,2.5,0,3.75,0c0,1.75,0,3.5,0,5.25c1.25,0,2.5,0,3.75,0c0,1,0,2,0,3c6.749,0,13.501,0,20.25,0c0-1,0-2,0-3
				c2.5,0,5,0,7.5,0c0-0.75,0-1.5,0-2.25c2.25,0,4.5,0,6.75,0c0-1,0-2,0-3c11.749,0,23.501,0,35.25,0c0,1,0,2,0,3c2.5,0,5,0,7.5,0
				c0,0.75,0,1.5,0,2.25c1.25,0,2.5,0,3.75,0c0-8.749,0-17.501,0-26.25c1.25,0,2.5,0,3.75,0c0-2.75,0-5.5,0-8.25c1,0,2,0,3,0
				c0-3.5,0-7,0-10.5C285,17.75,282.75,17.75,280.5,17.75z"/>
			<path id="facial" fill-rule="evenodd" clip-rule="evenodd" fill="#342014" d="M39.75,128c0,8.249,0,16.501,0,24.75
				c1.25,0,2.5,0,3.75,0c0,2.5,0,5,0,7.5c1,0,2,0,3,0c0,2.75,0,5.5,0,8.25c1.25,0,2.5,0,3.75,0c0,1.75,0,3.5,0,5.25
				c1.25,0,2.5,0,3.75,0c0,2.5,0,5,0,7.5c1.25,0,2.5,0,3.75,0c0,0.75,0,1.5,0,2.25c1.25,0,2.5,0,3.75,0c0,1.75,0,3.5,0,5.25
				c1.25,0,2.5,0,3.75,0c0,1,0,2,0,3c1,0,2,0,3,0c0,3.5,0,7,0,10.5c1.25,0,2.5,0,3.75,0c0,2,0,4,0,6c1,0,2,0,3,0
				c0,1.75,0,3.5,0,5.25c1.25,0,2.5,0,3.75,0c0,0.75,0,1.5,0,2.25c1,0,2,0,3,0c0,3.75,0,7.5,0,11.25c1.25,0,2.5,0,3.75,0
				c0,0.75,0,1.5,0,2.25c1.25,0,2.5,0,3.75,0c0,1.5,0,3,0,4.5c1.25,0,2.5,0,3.75,0c0,1,0,2,0,3c1.25,0,2.5,0,3.75,0
				c0,1.75,0,3.5,0,5.25c1,0,2,0,3,0c0,0.75,0,1.5,0,2.25c1.25,0,2.5,0,3.75,0c0,1,0,2,0,3c1.25,0,2.5,0,3.75,0c0,1,0,2,0,3
				c1.25,0,2.5,0,3.75,0c0,0.75,0,1.5,0,2.25c1.25,0,2.5,0,3.75,0c0,1,0,2,0,3c1,0,2,0,3,0c0,0.75,0,1.5,0,2.25c1,0,2,0,3,0
				c0,1,0,2,0,3c2.5,0,5,0,7.5,0c0,0.75,0,1.5,0,2.25c2.25,0,4.5,0,6.75,0c0,1,0,2,0,3c3.75,0,7.5,0,11.25,0c0,1,0,2,0,3
				c4.749,0,9.501,0,14.25,0c0,0.75,0,1.5,0,2.25c11.749,0,23.501,0,35.25,0c0-0.75,0-1.5,0-2.25c2.25,0,4.5,0,6.75,0
				c0-12.249,0-24.501,0-36.75c1.25,0,2.5,0,3.75,0c0-2.75,0-5.5,0-8.25c1.25,0,2.5,0,3.75,0c0-1.75,0-3.5,0-5.25c1,0,2,0,3,0
				c0-1,0-2,0-3c1,0,2,0,3,0c0-0.75,0-1.5,0-2.25c1.25,0,2.5,0,3.75,0c0-1,0-2,0-3c1.25,0,2.5,0,3.75,0c0-0.75,0-1.5,0-2.25
				c-1.25,0-2.5,0-3.75,0c0-1,0-2,0-3c-2.25,0-4.5,0-6.75,0c0-1,0-2,0-3c-2.25,0-4.5,0-6.75,0c0-0.75,0-1.5,0-2.25
				c-1.25,0-2.5,0-3.75,0c0-1,0-2,0-3c-1,0-2,0-3,0c0-0.75,0-1.5,0-2.25c-1.25,0-2.5,0-3.75,0c0-1,0-2,0-3c-1.25,0-2.5,0-3.75,0
				c0-1.75,0-3.5,0-5.25c-1.25,0-2.5,0-3.75,0c0-1,0-2,0-3c-1.25,0-2.5,0-3.75,0c0-0.75,0-1.5,0-2.25c-1,0-2,0-3,0c0-1.5,0-3,0-4.5
				c-1.25,0-2.5,0-3.75,0c0-1,0-2,0-3c-3.75,0-7.5,0-11.25,0c0-0.75,0-1.5,0-2.25c-2,0-4,0-6,0c0-1,0-2,0-3c-1.25,0-2.5,0-3.75,0
				c0-0.75,0-1.5,0-2.25c-3.5,0-7,0-10.5,0c0-1,0-2,0-3c-1.25,0-2.5,0-3.75,0c0-1,0-2,0-3c-1.25,0-2.5,0-3.75,0c0-1.75,0-3.5,0-5.25
				c-11.749,0-23.501,0-35.25,0c0-0.75,0-1.5,0-2.25c-1.25,0-2.5,0-3.75,0c0-1,0-2,0-3c-1,0-2,0-3,0c0-1,0-2,0-3
				c-1.25,0-2.5,0-3.75,0c0-0.75,0-1.5,0-2.25c-1.25,0-2.5,0-3.75,0c0-1,0-2,0-3c-1.25,0-2.5,0-3.75,0c0-0.75,0-1.5,0-2.25
				c-4.499,0-9,0-13.5,0c0-1,0-2,0-3c-1.25,0-2.5,0-3.75,0c0-0.75,0-1.5,0-2.25c-4.75,0-9.5,0-14.25,0c0-1,0-2,0-3c-2.5,0-5,0-7.5,0
				c0-1,0-2,0-3C44.25,128,42,128,39.75,128z"/>
		</g>
		<path id="trollish_grin" fill-rule="evenodd" clip-rule="evenodd" d="M72,149.75c3.25,0,6.5,0,9.75,0c0,3.5,0,7,0,10.5
			c-1,0-2,0-3,0c0,1,0,2,0,3c1,0,2,0,3,0c0,1,0,2,0,3c1.25,0,2.5,0,3.75,0c0,0.75,0,1.5,0,2.25c1.25,0,2.5,0,3.75,0c0,1,0,2,0,3
			c7.249,0,14.501,0,21.75,0c0,0.75,0,1.5,0,2.25c5.749,0,11.501,0,17.25,0c0,1,0,2,0,3c2.25,0,4.5,0,6.75,0c0-1,0-2,0-3
			c1.25,0,2.5,0,3.75,0c0-0.75,0-1.5,0-2.25c1.25,0,2.5,0,3.75,0c0-1,0-2,0-3c3.5,0,7,0,10.5,0c0,1,0,2,0,3c1.25,0,2.5,0,3.75,0
			c0,0.75,0,1.5,0,2.25c-1.25,0-2.5,0-3.75,0c0,1,0,2,0,3c-1.25,0-2.5,0-3.75,0c0,2.25,0,4.5,0,6.75c-1,0-2,0-3,0c0,1,0,2,0,3
			c-7.249,0-14.501,0-21.75,0c0-1,0-2,0-3c-4.5,0-9,0-13.5,0c0-0.75,0-1.5,0-2.25c-7.249,0-14.501,0-21.75,0c0-1,0-2,0-3
			c-2.5,0-5,0-7.5,0c0-0.5,0-1,0-1.5c-2.25,0-4.5,0-6.75,0c0-1,0-2,0-3c-1,0-2,0-3,0c0-1.75,0-3.5,0-5.25c-1.25,0-2.5,0-3.75,0
			c0-0.75,0-1.5,0-2.25c-1,0-2,0-3,0c0-2.75,0-5.5,0-8.25c1,0,2,0,3,0c0-1.75,0-3.5,0-5.25c1.25,0,2.5,0,3.75,0
			C72,151.75,72,150.75,72,149.75z"/>
	</g>
</g>
<g id="text" display="none">
	<text transform="matrix(1 0 0 1 2.4997 303.9997)" display="inline" font-family="'WineArial'" font-size="19">im already a demon</text>
</g>
</svg>
